<?xml version="1.0" standalone="no"?><!DOCTYPE svg PUBLIC "-//W3C//DTD SVG 1.1//EN" "http://www.w3.org/Graphics/SVG/1.1/DTD/svg11.dtd"><svg t="1569380800299" class="icon" viewBox="0 0 1024 1024" version="1.1" xmlns="http://www.w3.org/2000/svg" p-id="9396" xmlns:xlink="http://www.w3.org/1999/xlink" width="28" height="28"><defs><style type="text/css"></style></defs><path d="M762.77551 929.959184H261.22449c-40.75102 0-74.187755-33.436735-74.187755-74.710204v-288.914286c0-6.791837-5.22449-12.016327-11.493878-12.016327h-27.689796c-21.942857 0-40.75102-12.538776-49.110204-32.914285-8.359184-19.853061-3.657143-42.840816 11.493878-58.514286l341.159183-343.771429c15.673469-16.195918 37.616327-25.077551 60.604082-25.077551s44.930612 8.881633 61.126531 25.6L914.285714 463.412245c15.15102 15.673469 19.853061 38.661224 11.493878 58.514286-8.359184 20.37551-27.167347 32.914286-49.110204 32.914285h-27.689796c-6.269388 0-11.493878 5.22449-11.493878 12.016327v288.914286c-0.522449 40.75102-33.959184 74.187755-74.710204 74.187755zM512 135.836735c-12.016327 0-22.987755 4.702041-31.346939 13.061224L139.493878 492.669388c-5.22449 5.22449-3.657143 10.971429-2.612245 13.061224 1.044898 2.089796 3.657143 7.314286 10.971428 7.314286h27.689796c29.257143 0 53.289796 24.032653 53.289796 53.812245v288.914286c0 17.763265 14.628571 32.914286 32.391837 32.914285h501.55102c17.763265 0 32.391837-14.628571 32.391837-32.914285v-288.914286c0-29.779592 24.032653-53.812245 53.289796-53.812245h27.689796c6.791837 0 9.926531-5.22449 10.971428-7.314286 1.044898-2.089796 2.612245-7.836735-2.612245-13.061224L543.346939 148.897959c-8.359184-8.359184-19.330612-13.061224-31.346939-13.061224z" p-id="9397" fill="#8a8a8a"></path><path d="M663.510204 929.959184H360.489796v-219.428572c0-45.97551 37.616327-83.591837 83.591837-83.591836h135.836734c45.97551 0 83.591837 37.616327 83.591837 83.591836v219.428572z m-261.22449-41.795919h219.428572v-177.632653c0-22.987755-18.808163-41.795918-41.795919-41.795918H444.081633c-22.987755 0-41.795918 18.808163-41.795919 41.795918v177.632653z" p-id="9398" fill="#8a8a8a"></path></svg>